<svg width="186" height="48" viewBox="0 0 186 48" fill="none" xmlns="http://www.w3.org/2000/svg">
<path d="M69.1126 14.6417C71.1291 14.6417 72.8981 15.0358 74.4196 15.8241C75.9595 16.6124 77.1418 17.7398 77.9668 19.2063C78.81 20.6545 79.2317 22.341 79.2317 24.2658C79.2317 26.1907 78.81 27.8772 77.9668 29.3254C77.1418 30.7552 75.9595 31.8643 74.4196 32.6526C72.8981 33.4408 71.1291 33.835 69.1126 33.835H62.4032V14.6417H69.1126ZM68.9751 30.5628C70.9916 30.5628 72.5498 30.0128 73.6497 28.9129C74.7496 27.813 75.2995 26.264 75.2995 24.2658C75.2995 22.2677 74.7496 20.7095 73.6497 19.5913C72.5498 18.4547 70.9916 17.8864 68.9751 17.8864H66.2528V30.5628H68.9751ZM96.4945 18.6013V33.835H92.6174V31.9101C92.1224 32.5701 91.4716 33.0925 90.665 33.4775C89.8768 33.8441 89.0152 34.0274 88.0803 34.0274C86.8887 34.0274 85.8346 33.78 84.9181 33.285C84.0015 32.7717 83.2774 32.0293 82.7458 31.0577C82.2325 30.0678 81.9758 28.8946 81.9758 27.538V18.6013H85.8255V26.9881C85.8255 28.198 86.1279 29.1329 86.7329 29.7928C87.3378 30.4344 88.1628 30.7552 89.2077 30.7552C90.2709 30.7552 91.105 30.4344 91.7099 29.7928C92.3149 29.1329 92.6174 28.198 92.6174 26.9881V18.6013H96.4945ZM102.245 16.7865C101.567 16.7865 100.999 16.5757 100.54 16.1541C100.1 15.7141 99.8804 15.1733 99.8804 14.5317C99.8804 13.8901 100.1 13.3585 100.54 12.9369C100.999 12.4969 101.567 12.2769 102.245 12.2769C102.923 12.2769 103.483 12.4969 103.922 12.9369C104.381 13.3585 104.61 13.8901 104.61 14.5317C104.61 15.1733 104.381 15.7141 103.922 16.1541C103.483 16.5757 102.923 16.7865 102.245 16.7865ZM104.142 18.6013V33.835H100.293V18.6013H104.142ZM116.388 18.3814C118.202 18.3814 119.669 18.9588 120.787 20.1137C121.905 21.2503 122.465 22.8451 122.465 24.8983V33.835H118.615V25.4207C118.615 24.2108 118.312 23.2851 117.708 22.6435C117.103 21.9835 116.278 21.6536 115.233 21.6536C114.17 21.6536 113.326 21.9835 112.703 22.6435C112.098 23.2851 111.796 24.2108 111.796 25.4207V33.835H107.946V18.6013H111.796V20.4987C112.309 19.8387 112.96 19.3254 113.748 18.9588C114.554 18.5738 115.434 18.3814 116.388 18.3814ZM139.489 20.4162C139.049 19.6096 138.444 18.9955 137.674 18.5738C136.904 18.1522 136.006 17.9414 134.98 17.9414C133.843 17.9414 132.835 18.198 131.955 18.7113C131.075 19.2246 130.388 19.9579 129.893 20.9111C129.398 21.8644 129.15 22.9643 129.15 24.2108C129.15 25.4941 129.398 26.6123 129.893 27.5655C130.406 28.5188 131.112 29.252 132.01 29.7653C132.908 30.2786 133.953 30.5353 135.145 30.5353C136.611 30.5353 137.812 30.1503 138.747 29.3804C139.682 28.5921 140.296 27.5014 140.589 26.1082H133.99V23.1659H144.384V26.5206C144.127 27.8588 143.577 29.0962 142.734 30.2328C141.891 31.3694 140.8 32.2859 139.462 32.9825C138.142 33.6608 136.657 33.9999 135.007 33.9999C133.156 33.9999 131.478 33.5875 129.975 32.7626C128.49 31.9193 127.317 30.7552 126.455 29.2704C125.612 27.7855 125.191 26.099 125.191 24.2108C125.191 22.3227 125.612 20.6362 126.455 19.1513C127.317 17.6481 128.49 16.484 129.975 15.6591C131.478 14.8159 133.146 14.3942 134.98 14.3942C137.143 14.3942 139.022 14.9258 140.617 15.9891C142.211 17.034 143.311 18.5097 143.916 20.4162H139.489ZM161.613 18.6013V33.835H157.736V31.9101C157.241 32.5701 156.59 33.0925 155.784 33.4775C154.995 33.8441 154.134 34.0274 153.199 34.0274C152.007 34.0274 150.953 33.78 150.037 33.285C149.12 32.7717 148.396 32.0293 147.864 31.0577C147.351 30.0678 147.094 28.8946 147.094 27.538V18.6013H150.944V26.9881C150.944 28.198 151.247 29.1329 151.851 29.7928C152.456 30.4344 153.281 30.7552 154.326 30.7552C155.389 30.7552 156.224 30.4344 156.829 29.7928C157.433 29.1329 157.736 28.198 157.736 26.9881V18.6013H161.613ZM164.421 26.1632C164.421 24.6233 164.724 23.2576 165.329 22.066C165.952 20.8745 166.795 19.9579 167.859 19.3163C168.922 18.6747 170.104 18.3539 171.406 18.3539C172.396 18.3539 173.34 18.5738 174.238 19.0138C175.136 19.4354 175.851 20.0037 176.383 20.7187V13.4868H180.288V33.835H176.383V31.5802C175.906 32.3318 175.237 32.9367 174.376 33.395C173.514 33.8533 172.515 34.0824 171.378 34.0824C170.095 34.0824 168.922 33.7525 167.859 33.0925C166.795 32.4326 165.952 31.5068 165.329 30.3153C164.724 29.1054 164.421 27.7213 164.421 26.1632ZM176.41 26.2182C176.41 25.2832 176.227 24.4858 175.86 23.8259C175.494 23.1476 174.999 22.6343 174.376 22.286C173.752 21.9194 173.083 21.7361 172.368 21.7361C171.653 21.7361 170.993 21.9102 170.388 22.2585C169.784 22.6068 169.289 23.1201 168.904 23.7984C168.537 24.4583 168.354 25.2466 168.354 26.1632C168.354 27.0797 168.537 27.8863 168.904 28.5829C169.289 29.2612 169.784 29.7837 170.388 30.1503C171.012 30.5169 171.672 30.7002 172.368 30.7002C173.083 30.7002 173.752 30.5261 174.376 30.1778C174.999 29.8112 175.494 29.2979 175.86 28.6379C176.227 27.9597 176.41 27.1531 176.41 26.2182Z" fill="#425AF2"/>
<path d="M23.5 47.5127C36.4787 47.5127 47 36.9914 47 24.0127C47 11.034 36.4787 0.512695 23.5 0.512695C10.5213 0.512695 0 11.034 0 24.0127C0 36.9914 10.5213 47.5127 23.5 47.5127Z" fill="#425AF2"/>
<path d="M40.3589 24.0306C40.7593 23.3032 41.0676 22.5287 41.2767 21.7251C41.6542 20.2803 41.6994 18.7689 41.409 17.3041C41.1186 15.8394 40.5 14.4596 39.5998 13.2682C38.6995 12.0768 37.541 11.105 36.2113 10.4256C34.8816 9.74616 33.4152 9.37691 31.9223 9.34555C31.0369 7.90761 29.7981 6.72032 28.3238 5.89678C26.8496 5.07323 25.1891 4.64087 23.5004 4.64087C21.8117 4.64087 20.1512 5.07323 18.6769 5.89678C17.2027 6.72032 15.9639 7.90761 15.0785 9.34555C13.375 9.38133 11.7097 9.85692 10.2442 10.7261C8.77875 11.5954 7.5629 12.8287 6.71468 14.3065C5.86646 15.7842 5.4147 17.4561 5.40323 19.1599C5.39177 20.8638 5.821 22.5416 6.64926 24.0306C5.82153 25.5186 5.39225 27.1951 5.40303 28.8977C5.41381 30.6004 5.86429 32.2713 6.7108 33.7487C7.55731 35.226 8.77114 36.4596 10.2346 37.3298C11.6981 38.2001 13.3616 38.6775 15.0638 38.7157C15.9454 40.1653 17.1854 41.3634 18.6642 42.1949C20.1431 43.0264 21.8111 43.4631 23.5077 43.4631C25.2043 43.4631 26.8723 43.0264 28.3512 42.1949C29.8301 41.3634 31.07 40.1653 31.9517 38.7157C33.6507 38.67 35.3095 38.1879 36.7683 37.3157C38.2272 36.4435 39.437 35.2105 40.2815 33.7354C41.126 32.2604 41.5767 30.5928 41.5902 28.8932C41.6038 27.1935 41.1797 25.519 40.3589 24.0306ZM39.5806 14.6028C40.1894 15.6338 40.5873 16.7756 40.7511 17.9617C40.915 19.1478 40.8416 20.3546 40.5351 21.5121C40.3782 22.1075 40.1617 22.6856 39.8889 23.2376C39.0626 22.0328 37.976 21.0291 36.7096 20.3006C35.4056 19.5365 33.9436 19.0818 32.4363 18.9716L32.3849 18.8909C33.0585 17.5317 33.409 16.0353 33.409 14.5184C33.409 13.0014 33.0585 11.505 32.3849 10.1459C33.8553 10.2513 35.2783 10.7119 36.5316 11.4881C37.7849 12.2644 38.8312 13.3332 39.5806 14.6028ZM31.5038 37.9374C29.9803 37.8996 28.4905 37.4806 27.1707 36.7187C25.8508 35.9569 24.7429 34.8763 23.9483 33.5759C24.0437 33.4071 24.1318 33.2382 24.22 33.062C25.7297 32.9519 27.1941 32.4972 28.5007 31.733C29.6517 31.0548 30.6513 30.1476 31.4377 29.0676C32.1847 30.4158 32.5766 31.9318 32.5766 33.4731C32.5766 35.0145 32.1847 36.5305 31.4377 37.8787L31.5038 37.9374ZM14.4177 33.5319C14.4158 31.9904 14.8075 30.474 15.5558 29.1264C16.4034 30.267 17.4868 31.2116 18.7323 31.8958C19.9778 32.58 21.3562 32.9878 22.7735 33.0913C22.8542 33.2675 22.9497 33.4438 23.0378 33.6127C22.2441 34.9039 21.1394 35.9757 19.8246 36.7299C18.5099 37.4841 17.0271 37.8968 15.5117 37.9301C14.768 36.5813 14.3813 35.0648 14.3883 33.5245L14.4177 33.5319ZM15.5264 10.0798C16.8252 10.1095 18.1025 10.4179 19.2718 10.9841C20.441 11.5504 21.475 12.3613 22.3036 13.3619C20.831 13.5436 19.418 14.0536 18.1688 14.8542C16.9195 15.6548 15.866 16.7256 15.0858 17.9877C14.6246 16.8777 14.3875 15.6874 14.3883 14.4853C14.3851 12.9437 14.7769 11.427 15.5264 10.0798ZM18.8966 15.315C20.1031 14.6054 21.4579 14.1856 22.8542 14.0888C22.9203 14.1916 22.9864 14.2944 23.0451 14.3972C21.8383 16.5979 21.5078 19.1735 22.12 21.6076C20.3304 19.9138 17.9752 18.9456 15.5117 18.8909V18.8395C16.3045 17.3907 17.474 16.1831 18.8966 15.3444V15.315ZM32.6198 14.4853C32.6123 15.6902 32.3626 16.8813 31.8856 17.9877C30.5694 15.8163 28.4647 14.2377 26.0115 13.5822C25.5768 13.4707 25.1353 13.3873 24.6899 13.3325C25.3717 12.5332 26.1865 11.8575 27.0982 11.3354C28.4342 10.5446 29.9516 10.1121 31.5038 10.0798C32.2443 11.4295 32.6284 12.9458 32.6198 14.4853ZM23.2948 32.3277C22.799 31.1365 22.5615 29.8536 22.5983 28.5638C22.635 27.274 22.9449 26.0067 23.5077 24.8457C24.0682 26.0078 24.3756 27.2756 24.4098 28.5654C24.444 29.8552 24.2041 31.1375 23.706 32.3277H23.2948ZM23.5077 23.1789C22.9097 21.9427 22.599 20.5872 22.599 19.2139C22.599 17.8406 22.9097 16.4852 23.5077 15.249C24.1042 16.4856 24.414 17.8409 24.414 19.2139C24.414 20.5869 24.1042 21.9422 23.5077 23.1789ZM20.7616 24.0306C18.6665 24.6499 16.8324 25.9396 15.5411 27.7019C14.3877 25.6501 14.0796 23.2295 14.682 20.9541C14.7926 20.5513 14.9299 20.1564 15.0932 19.772C16.393 21.8418 18.4117 23.3585 20.7616 24.0306ZM16.033 19.7426C17.3729 19.8487 18.6724 20.2508 19.8381 20.9199C21.0037 21.5891 22.0062 22.5086 22.7735 23.6121C21.4332 23.5013 20.1339 23.0956 18.9687 22.4241C17.8034 21.7527 16.801 20.832 16.033 19.7279V19.7426ZM22.7661 24.4565C21.5346 26.2282 19.7126 27.5036 17.6264 28.0543C17.1108 28.1858 16.5852 28.2742 16.055 28.3187C16.8196 27.2185 17.8174 26.3006 18.9775 25.6305C20.1375 24.9604 21.4312 24.5545 22.7661 24.4418V24.4565ZM17.8026 28.8033C19.4197 28.3856 20.9033 27.5617 22.1126 26.4096C21.6239 28.3552 21.7366 30.4033 22.4357 32.2836C20.1157 32.0103 17.9893 30.8564 16.4956 29.0603C16.9373 29.0018 17.3742 28.911 17.8026 28.7886V28.8033ZM24.8955 26.3729C26.4417 27.8392 28.4189 28.7686 30.5345 29.0236C29.0413 30.8353 26.9045 31.9984 24.5724 32.269C25.2738 30.3815 25.3865 28.3257 24.8955 26.3729ZM24.2567 24.4418C25.5881 24.5511 26.8792 24.9525 28.0378 25.6175C29.1965 26.2825 30.1944 27.1948 30.9604 28.2893C29.6283 28.1786 28.3367 27.7766 27.1771 27.1118C26.0174 26.4469 25.0179 25.5355 24.2493 24.4418H24.2567ZM26.2465 24.0306C28.6044 23.3494 30.6248 21.8158 31.9149 19.7279C32.4432 20.9995 32.6767 22.3741 32.5978 23.7488C32.519 25.1234 32.1299 26.4624 31.4597 27.6652C30.1657 25.9167 28.3346 24.6401 26.2465 24.0306ZM24.2346 23.6121C25.0041 22.5137 26.0065 21.5986 27.1704 20.9323C28.3343 20.2659 29.6309 19.8647 30.9678 19.7573C30.1964 20.8526 29.1932 21.7646 28.0295 22.4283C26.8658 23.092 25.5701 23.4912 24.2346 23.5974V23.6121ZM25.8133 14.4119C26.9721 14.7127 28.0599 15.24 29.0139 15.9634C29.9679 16.6867 30.7692 17.5919 31.3716 18.6265C31.423 18.7073 31.467 18.7954 31.5111 18.8762V18.9422C29.0468 18.9997 26.6917 19.9705 24.9028 21.6663C25.5181 19.226 25.1821 16.643 23.963 14.4413C24.0291 14.3385 24.0878 14.2357 24.1612 14.1329C24.7186 14.1725 25.2714 14.2609 25.8133 14.3972V14.4119ZM14.961 28.2085C14.9853 28.2518 15.0123 28.2935 15.0418 28.3334C13.5342 28.2902 12.0608 27.8748 10.7527 27.124C9.4447 26.3733 8.34273 25.3106 7.54505 24.0306C8.26585 22.8616 9.24218 21.871 10.4007 21.1335C11.5593 20.3959 12.8699 19.9304 14.2341 19.772C13.7231 21.1443 13.5233 22.613 13.649 24.072C13.7747 25.531 14.2228 26.9438 14.961 28.2085ZM32.774 19.772C34.138 19.9277 35.4487 20.3922 36.6064 21.1301C37.7641 21.868 38.7386 22.8599 39.4557 24.0306C38.6625 25.3098 37.5646 26.3723 36.2602 27.1232C34.9557 27.8741 33.4855 28.2899 31.981 28.3334C32.747 27.0572 33.216 25.6251 33.3533 24.143C33.4906 22.661 33.2926 21.1671 32.774 19.772ZM23.5004 5.39526C24.9775 5.39731 26.432 5.75786 27.7391 6.44592C29.0462 7.13398 30.1667 8.129 31.0045 9.34555C29.579 9.44658 28.1924 9.85531 26.9401 10.5436C25.6877 11.2319 24.5994 12.1834 23.75 13.3325H23.2434C22.4508 12.2641 21.4522 11.3653 20.3064 10.6892C18.993 9.91381 17.5176 9.45385 15.9963 9.34555C16.8332 8.12811 17.9535 7.1324 19.2608 6.44424C20.5681 5.75607 22.0231 5.39606 23.5004 5.39526ZM7.42756 14.6175C8.17375 13.3442 9.21757 12.2709 10.4695 11.4896C11.7215 10.7082 13.1443 10.2421 14.6159 10.1312C13.9459 11.494 13.5975 12.9924 13.5975 14.511C13.5975 16.0296 13.9459 17.528 14.6159 18.8909L14.5792 18.9643C13.0916 19.0686 11.6472 19.5094 10.3549 20.2535C9.06262 20.9976 7.95621 22.0255 7.11918 23.2597C6.45013 21.9065 6.12803 20.4082 6.18186 18.8996C6.2357 17.3911 6.66377 15.9195 7.42756 14.6175ZM7.42756 33.4071C6.66377 32.105 6.2357 30.6335 6.18186 29.1249C6.12803 27.6164 6.45013 26.1181 7.11918 24.7649C7.96293 26.0138 9.08096 27.0534 10.3879 27.8042C11.6948 28.555 13.156 28.9972 14.66 29.097C13.9696 30.4629 13.6099 31.972 13.61 33.5025C13.6044 35.0239 13.9486 36.5262 14.6159 37.8934C13.144 37.7837 11.7207 37.3181 10.4685 36.5366C9.21638 35.7551 8.17279 34.6811 7.42756 33.4071ZM23.5004 42.644C22.024 42.6456 20.5693 42.289 19.261 41.6048C17.9527 40.9206 16.8299 39.9292 15.989 38.7157C17.4942 38.6032 18.9536 38.1477 20.2556 37.3841C21.5576 36.6205 22.6675 35.569 23.5004 34.3102C24.3236 35.5496 25.4216 36.5823 26.7091 37.328C28.0128 38.1197 29.4839 38.5949 31.0045 38.7157C30.1651 39.9291 29.0437 40.9205 27.7366 41.6048C26.4295 42.289 24.9758 42.6456 23.5004 42.644ZM39.5806 33.4217C38.9791 34.4572 38.1781 35.3629 37.224 36.0864C36.2698 36.8098 35.1816 37.3367 34.0222 37.6364C33.4843 37.7809 32.9334 37.8719 32.3775 37.908C33.0607 36.5399 33.4163 35.0317 33.4163 33.5025C33.4163 31.9733 33.0607 30.4651 32.3775 29.097C33.8744 28.9891 35.3274 28.5432 36.6272 27.7929C37.9269 27.0425 39.0396 26.0072 39.8816 24.7649C40.1544 25.3169 40.3708 25.895 40.5277 26.4904C40.8383 27.6507 40.9146 28.8613 40.7519 30.0514C40.5893 31.2415 40.1911 32.3873 39.5806 33.4217Z" fill="white"/>
</svg>
